<?xml version="1.0" standalone="no"?>
<!DOCTYPE svg PUBLIC "-//W3C//DTD SVG 20010904//EN"
 "http://www.w3.org/TR/2001/REC-SVG-20010904/DTD/svg10.dtd">
<svg version="1.0" xmlns="http://www.w3.org/2000/svg"
 width="300.000000pt" height="137.000000pt" viewBox="0 0 300.000000 137.000000"
 preserveAspectRatio="xMidYMid meet">
<metadata>
Created by potrace 1.10, written by Peter Selinger 2001-2011
</metadata>
<g transform="translate(0.000000,137.000000) scale(0.100000,-0.100000)"
fill="#000000" stroke="none">
<path d="M1802 1311 l-21 -29 62 -40 c34 -22 86 -54 115 -72 l52 -32 -82 -50
c-46 -28 -95 -58 -110 -67 -16 -9 -28 -21 -28 -27 0 -16 26 -47 36 -43 5 2 66
40 137 83 112 70 127 83 127 107 0 22 -10 33 -57 61 -150 91 -198 122 -204
129 -3 5 -15 -4 -27 -20z"/>
<path d="M1075 1269 c-49 -33 -107 -69 -127 -80 -30 -15 -38 -25 -38 -47 0
-28 -6 -24 204 -156 l70 -44 13 25 c7 14 13 28 13 32 0 4 -47 35 -105 70 -58
34 -105 65 -105 69 0 7 162 112 192 124 10 4 18 13 18 20 -1 17 -25 48 -36 47
-5 0 -49 -27 -99 -60z"/>
<path d="M1256 1186 c-15 -14 -26 -34 -26 -46 0 -26 43 -70 68 -70 34 0 65 34
65 69 0 62 -65 90 -107 47z m62 -49 c2 -12 -3 -17 -17 -17 -15 0 -21 6 -21 21
0 25 33 22 38 -4z"/>
<path d="M1473 1200 c-23 -10 -43 -39 -43 -65 0 -23 45 -65 70 -65 26 0 70 43
70 68 0 44 -55 79 -97 62z m42 -61 c0 -7 -8 -15 -17 -17 -18 -3 -25 18 -11 32
10 10 28 1 28 -15z"/>
<path d="M1672 1200 c-63 -26 -37 -130 33 -130 23 0 65 45 65 70 0 23 -42 70
-62 69 -7 0 -23 -4 -36 -9z m48 -60 c0 -21 -24 -28 -35 -10 -8 14 3 30 21 30
8 0 14 -9 14 -20z"/>
<path d="M35 772 c-2 -2 3 -23 12 -45 8 -23 39 -116 67 -206 l52 -165 53 0 53
0 69 209 c38 115 68 209 66 210 -1 1 -23 0 -48 -3 l-46 -4 -36 -116 c-20 -65
-39 -129 -43 -144 -6 -28 -24 -39 -24 -15 0 6 -19 71 -41 144 l-42 131 -44 4
c-24 2 -46 2 -48 0z m229 -320 c-25 -77 -62 -79 -88 -4 -16 46 -12 50 22 26
20 -14 24 -13 47 3 13 10 25 22 25 27 0 5 2 7 5 4 3 -3 -2 -28 -11 -56z"/>
<path d="M1440 773 c0 -2 -1 -96 -1 -210 l0 -207 36 -2 c31 -1 35 2 35 24 l0
26 20 -22 c25 -27 60 -36 107 -29 66 11 103 67 103 157 0 57 -15 93 -54 129
-35 33 -105 35 -138 4 -14 -13 -26 -23 -29 -23 -2 0 -3 35 -1 78 l4 77 -41 0
c-23 0 -41 -1 -41 -2z m55 -190 c-6 -24 -8 -26 -16 -10 -6 10 -7 27 -4 38 10
32 29 6 20 -28z m146 -12 c17 -20 20 -36 16 -74 -5 -56 -29 -87 -68 -87 -40 0
-69 41 -69 97 0 52 13 81 43 92 30 11 54 3 78 -28z"/>
<path d="M497 655 c-49 -17 -75 -41 -94 -85 -16 -37 -12 -98 8 -143 27 -60
131 -95 199 -67 33 14 70 54 70 76 0 22 -57 17 -80 -6 -28 -28 -75 -26 -105 5
-48 48 -37 55 86 55 l112 0 -5 44 c-11 97 -101 154 -191 121z m98 -78 c26 -37
19 -42 -55 -39 -38 2 -70 7 -70 11 0 3 7 16 15 28 26 37 85 36 110 0z"/>
<path d="M815 656 c-41 -18 -65 -48 -76 -93 -14 -62 -1 -123 37 -160 28 -29
39 -33 83 -33 38 0 56 5 71 20 25 25 30 25 30 1 0 -39 -22 -80 -48 -89 -33
-11 -82 3 -82 24 0 10 -13 14 -45 14 -54 0 -56 -11 -12 -55 57 -57 174 -57
228 1 23 25 24 31 27 200 l3 174 -41 0 c-37 0 -41 -2 -35 -20 4 -11 2 -20 -4
-20 -6 0 -11 4 -11 10 0 26 -84 44 -125 26z m120 -79 c20 -28 19 -97 -1 -125
-22 -32 -78 -30 -100 3 -19 29 -21 83 -4 114 22 43 78 46 105 8z m61 -152 c1
-27 -13 -34 -22 -10 -7 18 4 51 13 41 4 -4 8 -18 9 -31z"/>
<path d="M1189 661 c-45 -14 -69 -31 -84 -61 -9 -17 -14 -31 -13 -31 2 -1 21
-2 44 -3 33 -2 43 2 50 18 6 14 20 22 42 24 37 4 62 -12 62 -38 0 -20 -35 -34
-112 -45 -96 -13 -123 -120 -41 -163 29 -16 93 -14 123 3 31 18 40 18 40 2 0
-7 14 -13 38 -13 l37 -1 -3 131 c-4 148 -10 161 -78 176 -46 11 -70 11 -105 1z
m145 -133 c7 -29 1 -34 -22 -19 -12 7 -12 12 -1 29 7 12 14 20 15 19 1 -1 4
-14 8 -29z m-44 -52 c0 -40 -10 -54 -45 -66 -43 -14 -75 1 -75 35 0 20 8 27
48 39 65 20 72 19 72 -8z"/>
<path d="M1875 660 c-38 -13 -58 -29 -74 -58 -16 -31 -8 -39 36 -37 26 2 39 8
41 19 4 20 43 30 78 22 20 -5 25 -12 22 -34 -3 -24 -9 -28 -59 -38 -100 -20
-108 -23 -124 -55 -46 -88 61 -165 159 -114 21 11 31 12 36 4 4 -6 25 -13 46
-14 l39 -3 -3 121 c-4 127 -12 156 -52 177 -29 16 -110 21 -145 10z m153 -140
c-2 -26 -4 -28 -16 -16 -16 15 -10 46 8 46 6 0 9 -14 8 -30z m-44 -52 c-11
-59 -65 -85 -108 -53 -31 24 -8 61 46 73 68 15 68 15 62 -20z"/>
<path d="M2274 660 c-12 -4 -30 -20 -42 -34 -26 -34 -33 -33 -25 4 5 29 5 30
-36 30 l-41 0 0 -153 0 -153 40 1 40 1 4 89 c2 50 7 97 10 106 9 20 48 39 82
39 23 0 25 3 22 37 -3 40 -17 49 -54 33z m-79 -85 c0 -10 -6 -20 -12 -22 -8
-3 -13 5 -13 22 0 17 5 25 13 23 6 -3 12 -13 12 -23z"/>
<path d="M2446 660 c-87 -27 -131 -143 -88 -229 24 -48 62 -73 120 -79 78 -7
137 28 157 96 6 20 3 22 -34 22 -32 0 -43 -5 -52 -22 -16 -30 -28 -38 -62 -38
-31 0 -67 48 -67 90 0 35 31 92 55 100 28 10 66 -6 72 -30 4 -16 14 -20 49
-20 24 0 44 3 44 6 0 21 -35 73 -59 87 -35 21 -98 29 -135 17z"/>
<path d="M2764 660 c-35 -11 -71 -46 -76 -75 -2 -16 3 -19 35 -20 29 0 42 6
53 23 17 26 65 30 88 6 30 -29 13 -48 -49 -59 -92 -16 -115 -25 -130 -55 -20
-38 -10 -85 24 -111 21 -17 36 -20 78 -17 31 3 61 12 72 22 18 16 19 16 23 1
2 -12 15 -18 43 -20 l40 -3 -3 122 c-3 132 -11 158 -50 176 -36 16 -111 21
-148 10z m156 -142 c0 -30 -1 -31 -16 -16 -9 9 -14 24 -11 32 11 27 27 17 27
-16z m-44 -45 c-12 -65 -73 -95 -110 -54 -25 28 -6 58 42 67 20 4 44 10 52 15
22 13 23 12 16 -28z"/>
<path d="M333 144 c-4 -11 2 -23 16 -33 12 -9 19 -20 15 -24 -4 -4 -13 -2 -21
4 -10 9 -13 8 -13 -5 0 -10 9 -16 25 -16 18 0 25 5 25 20 0 11 -7 23 -15 26
-8 4 -15 10 -15 15 0 4 7 6 15 3 8 -4 15 -2 15 4 0 8 -22 22 -36 22 -3 0 -7
-7 -11 -16z"/>
<path d="M471 143 c-37 -25 -21 -73 25 -73 29 0 48 24 40 54 -7 29 -38 39 -65
19z m47 -31 c3 -16 -2 -22 -17 -22 -24 0 -35 15 -27 36 9 23 40 13 44 -14z"/>
<path d="M633 153 c-19 -4 -23 -11 -23 -44 0 -21 5 -39 10 -39 6 0 10 5 10 11
0 7 8 18 18 25 16 13 16 13 0 14 -22 0 -24 20 -3 20 8 0 15 5 15 10 0 6 -1 9
-2 9 -2 -1 -13 -4 -25 -6z"/>
<path d="M755 149 c-16 -4 -24 -7 -17 -8 7 -1 12 -15 12 -36 0 -19 5 -35 10
-35 6 0 10 15 10 34 0 19 6 36 13 39 23 8 2 13 -28 6z"/>
<path d="M949 134 c-11 -29 -11 -29 -20 -6 -11 29 -23 28 -36 -5 l-11 -28 -1
28 c-1 16 -7 27 -15 27 -12 0 -12 -6 1 -40 16 -40 33 -53 33 -26 0 24 21 30
27 7 8 -31 18 -26 33 19 15 46 6 67 -11 24z"/>
<path d="M1343 152 c-19 -3 -23 -10 -23 -43 0 -37 2 -39 31 -39 19 0 28 4 24
11 -4 6 -13 8 -21 5 -20 -7 -17 4 4 20 16 13 16 13 0 14 -26 0 -22 18 5 22 12
2 18 5 12 9 -5 3 -20 3 -32 1z"/>
<path d="M1703 152 c-19 -3 -23 -10 -23 -43 0 -37 2 -39 30 -39 17 0 30 5 30
11 0 6 -6 9 -14 6 -22 -9 -28 5 -8 19 16 13 16 13 0 14 -26 0 -22 18 5 22 12
2 18 5 12 9 -5 3 -20 3 -32 1z"/>
<path d="M1807 154 c-7 -8 30 -84 41 -84 7 0 42 63 42 75 0 17 -22 0 -31 -22
l-11 -28 -14 33 c-15 34 -17 36 -27 26z"/>
<path d="M1978 153 c-13 -3 -18 -15 -18 -44 0 -37 2 -39 31 -39 19 0 28 4 24
11 -4 6 -13 8 -21 5 -7 -3 -16 -1 -19 4 -4 6 1 10 9 10 22 0 20 17 -1 23 -15
4 -15 6 5 12 12 4 22 11 22 16 0 9 -4 10 -32 2z"/>
<path d="M2217 142 c-30 -33 -15 -72 28 -72 46 0 60 48 23 74 -28 20 -31 20
-51 -2z m48 -27 c0 -13 -8 -21 -22 -23 -17 -3 -23 2 -23 16 0 10 3 22 7 26 13
13 38 1 38 -19z"/>
<path d="M2508 153 c-14 -3 -18 -15 -18 -44 0 -35 2 -39 26 -39 14 0 23 4 19
10 -4 6 -10 8 -15 5 -5 -3 -11 -1 -15 5 -3 5 1 10 9 10 9 0 16 5 16 10 0 6 -7
10 -15 10 -24 0 -17 18 8 22 12 2 18 6 12 9 -5 3 -18 4 -27 2z"/>
<path d="M1054 115 c-17 -42 -18 -53 -2 -37 16 16 45 15 51 0 2 -7 7 -10 11
-7 10 9 -20 79 -34 79 -6 0 -18 -16 -26 -35z"/>
<path d="M1190 110 c0 -38 20 -60 20 -22 1 16 1 16 14 0 7 -10 19 -18 27 -18
10 0 10 3 2 11 -7 7 -9 25 -6 40 5 27 3 29 -26 29 -30 0 -31 -2 -31 -40z"/>
<path d="M1540 110 c0 -41 1 -41 33 -38 29 3 32 6 32 38 0 32 -3 35 -32 38
-32 3 -33 3 -33 -38z m44 24 c22 -8 20 -31 -4 -44 -18 -10 -20 -8 -20 20 0 32
1 33 24 24z"/>
<path d="M2080 110 c0 -38 2 -40 31 -40 17 0 28 4 24 10 -3 6 -13 10 -21 10
-9 0 -14 11 -14 30 0 17 -4 30 -10 30 -5 0 -10 -18 -10 -40z"/>
<path d="M2360 111 c0 -23 5 -41 11 -41 5 0 7 5 4 10 -3 6 6 15 20 20 35 13
30 44 -8 48 -25 3 -27 1 -27 -37z"/>
<path d="M2610 111 c0 -39 20 -61 20 -23 1 16 1 16 14 0 19 -26 23 -22 22 20
-1 33 -4 37 -28 40 -27 3 -28 1 -28 -37z"/>
</g>
</svg>
